<svg xmlns="http://www.w3.org/2000/svg" enable-background="new 0 0 512 512" version="1" viewBox="0 0 512 512"><circle cx="258.18" cy="256" r="221.959" fill="#FFD139"/><path fill="#223A5E" d="M217.689,342.566c-2.454,0-4.913-0.898-6.844-2.71c-4.026-3.781-4.225-10.109-0.443-14.135
		c11.066-11.784,29.103-18.819,48.247-18.819c18.637,0,35.79,6.416,47.062,17.603c3.92,3.89,3.944,10.222,0.054,14.142
		c-3.889,3.92-10.222,3.945-14.142,0.054c-7.444-7.388-19.771-11.799-32.975-11.799c-13.726,0-26.312,4.677-33.669,12.511
		C223.013,341.507,220.353,342.566,217.689,342.566z"/><path fill="#FFF" d="M237.839,220.182c0,19.048-30.063,21.384-67.147,21.384s-67.147-2.336-67.147-21.384
				s30.063-34.49,67.147-34.49S237.839,201.133,237.839,220.182z"/><path fill="#223A5E" d="M170.693,185.691c-13.805,0-26.632,2.142-37.302,5.811c2.795,18.089,18.431,31.937,37.302,31.937
				c18.871,0,34.507-13.848,37.302-31.937C197.324,187.834,184.497,185.691,170.693,185.691z"/><g><path fill="#FFF" d="M412.814,220.182c0,19.048-30.063,21.384-67.147,21.384s-67.147-2.336-67.147-21.384
				s30.063-34.49,67.147-34.49S412.814,201.133,412.814,220.182z"/><path fill="#223A5E" d="M345.667,185.691c-13.805,0-26.632,2.142-37.302,5.811c2.795,18.089,18.431,31.937,37.302,31.937
				c18.871,0,34.507-13.848,37.302-31.937C372.299,187.834,359.471,185.691,345.667,185.691z"/></g></svg>